<?xml version="1.0" standalone="no"?>
<!DOCTYPE svg PUBLIC "-//W3C//DTD SVG 20010904//EN"
 "http://www.w3.org/TR/2001/REC-SVG-20010904/DTD/svg10.dtd">
<svg version="1.0" xmlns="http://www.w3.org/2000/svg"
 width="64.000000pt" height="64.000000pt" viewBox="0 0 64.000000 64.000000"
 preserveAspectRatio="xMidYMid meet">

<g transform="translate(0.000000,64.000000) scale(0.100000,-0.100000)"
fill="#000000" stroke="none">
<path d="M270 504 c-69 -58 -132 -112 -140 -122 -8 -9 -4 -7 10 4 14 12 80 67
148 123 67 55 119 101 115 101 -4 -1 -64 -48 -133 -106z"/>
<path d="M430 345 l0 -195 -37 0 -38 0 3 135 3 135 -35 0 -36 0 0 -135 0 -135
-35 0 -35 0 0 80 0 80 -30 0 -29 0 -3 -77 -3 -78 -32 -3 c-33 -3 -33 -4 -33
-58 l0 -54 233 2 232 3 3 53 3 52 -43 0 -43 0 3 195 3 195 -26 0 -25 0 0 -195z"/>
</g>
</svg>
